<svg width="188" height="40" viewBox="0 0 188 40" fill="none" xmlns="http://www.w3.org/2000/svg">
<path fill-rule="evenodd" clip-rule="evenodd" d="M116.896 25.7884C115.815 26.7365 114.421 27.3081 112.899 27.3081C109.472 27.3081 106.691 24.4103 106.691 20.841C106.691 17.2719 109.472 14.3741 112.899 14.3741C114.25 14.3741 115.501 14.8247 116.52 15.5892V15.1716C116.52 14.8858 116.752 14.6542 117.038 14.6542C117.833 14.6542 119.347 14.6542 120.142 14.6542C120.428 14.6542 120.659 14.8858 120.659 15.1716C120.659 16.9027 120.659 22.3841 120.659 22.3841V22.3932C120.659 23.7682 120.839 25.1019 121.175 26.3718C121.217 26.5271 121.185 26.6932 121.087 26.8213C120.989 26.9491 120.838 27.0243 120.677 27.0243C119.799 27.0251 118.312 27.0251 117.612 27.0251C117.382 27.0253 117.179 26.8726 117.115 26.6508C117.034 26.3665 116.961 26.0789 116.896 25.7884ZM116.52 20.841C116.52 19.1981 115.184 17.8644 113.539 17.8644C111.893 17.8644 110.557 19.1981 110.557 20.841C110.557 22.4839 111.893 23.8178 113.539 23.8178C115.184 23.8178 116.52 22.4839 116.52 20.841Z" fill="#1F2937"/>
<path fill-rule="evenodd" clip-rule="evenodd" d="M101.283 20.4077C101.249 18.8215 100.844 18.1056 99.5364 18.1056C98.1658 18.1056 96.7931 19.6869 96.7931 21.6427V27.0152H92.6555V15.2118C92.6555 15.0772 92.7089 14.948 92.8043 14.8529C92.8994 14.7576 93.0285 14.7041 93.1633 14.7041C93.9588 14.7041 95.4898 14.7041 96.2853 14.7041C96.4199 14.7041 96.5492 14.7576 96.6443 14.8529C96.7394 14.948 96.7931 15.0772 96.7931 15.2118C96.7931 15.5364 96.7931 15.8971 96.7931 15.8971C97.5393 15.0075 98.8491 14.3741 100.169 14.3741C103.25 14.3741 105.376 16.4594 105.398 19.9302C105.398 19.9481 105.398 19.966 105.398 19.9838V24.3201V24.329V24.5015H105.399C105.406 25.1602 105.456 25.809 105.544 26.4452C105.565 26.5908 105.522 26.7383 105.426 26.8495C105.329 26.9607 105.189 27.0247 105.042 27.0247C104.204 27.025 102.693 27.0251 101.954 27.0251C101.703 27.0254 101.49 26.8425 101.451 26.5949C101.341 25.8527 101.283 25.0931 101.283 24.3201V20.4077Z" fill="#1F2937"/>
<path fill-rule="evenodd" clip-rule="evenodd" d="M122.714 24.3253C122.714 24.3253 122.714 17.215 122.714 15.2344C122.714 14.9545 122.94 14.7276 123.22 14.7276C124.009 14.7276 125.523 14.7276 126.311 14.7276C126.591 14.7276 126.818 14.9545 126.818 15.2342C126.819 17.2387 126.821 24.5063 126.821 24.5063H126.821C126.829 25.1638 126.878 25.8114 126.967 26.4464C126.987 26.5917 126.944 26.7389 126.848 26.8499C126.752 26.9609 126.612 27.0247 126.465 27.0247C125.628 27.0251 124.12 27.0251 123.383 27.0251C123.133 27.0254 122.92 26.8429 122.881 26.5957C122.771 25.8549 122.714 25.0968 122.714 24.3253ZM124.74 12.8022C123.398 12.8022 122.334 11.8142 122.334 10.4968C122.334 9.15401 123.398 8.16586 124.74 8.16586C126.058 8.16586 127.147 9.15401 127.147 10.4968C127.147 11.8142 126.058 12.8022 124.74 12.8022Z" fill="#1F2937"/>
<path d="M139.812 23.1635C139.739 22.9691 139.552 22.8401 139.342 22.8386C138.694 22.8259 137.377 22.8168 136.612 22.8112C136.458 22.8102 136.313 22.8766 136.215 22.9925C136.116 23.1089 136.075 23.2618 136.103 23.4106C136.649 26.2323 139.159 27.3632 142.164 27.3632C145.425 27.3632 147.993 26.0976 147.993 23.2628C147.993 21.086 146.427 19.9723 144.115 19.5421L141.804 19.1624C140.802 18.9852 140.494 18.6055 140.494 18.1752C140.494 17.7196 140.982 17.34 142.061 17.34C143.063 17.34 143.872 17.6447 144.12 18.3195C144.192 18.5144 144.38 18.6445 144.591 18.6445C145.245 18.6561 146.551 18.6562 147.301 18.6562C147.451 18.6567 147.594 18.5913 147.692 18.4785C147.79 18.3651 147.832 18.2157 147.808 18.0689C147.347 15.2959 144.828 14.4292 142.061 14.4292C138.748 14.4292 136.513 15.9479 136.513 18.5296C136.513 20.6811 138.029 21.8706 140.16 22.225L142.677 22.6553C143.499 22.7819 143.987 23.0856 143.987 23.5159C143.987 24.0474 143.294 24.3512 142.189 24.3512C141.024 24.3512 140.123 23.9912 139.812 23.1635Z" fill="#1F2937"/>
<path fill-rule="evenodd" clip-rule="evenodd" d="M131.991 8.64878C132.277 8.64878 132.509 8.88034 132.509 9.1661C132.509 11.5294 132.509 21.1841 132.509 21.1841C132.509 23.24 133.24 23.8071 134.91 23.6416C135.05 23.6295 135.188 23.6748 135.294 23.7669C135.399 23.8591 135.462 23.9901 135.469 24.13C135.501 24.7524 135.549 25.746 135.576 26.3238C135.589 26.5879 135.4 26.8194 135.139 26.86C130.856 27.5255 128.288 26.2956 128.288 21.1841C128.288 21.1841 128.288 11.5294 128.288 9.1661C128.288 8.88034 128.519 8.64878 128.805 8.64878C129.617 8.64878 131.18 8.64878 131.991 8.64878Z" fill="#1F2937"/>
<path fill-rule="evenodd" clip-rule="evenodd" d="M54.6778 25.7956C53.5976 26.7438 52.2029 27.3153 50.6811 27.3153C47.2547 27.3153 44.4728 24.4175 44.4728 20.8483C44.4728 17.2792 47.2547 14.3813 50.6811 14.3813C52.0321 14.3813 53.2831 14.832 54.3026 15.5964C54.3026 15.5964 54.3026 15.3949 54.3026 15.1789C54.3026 14.8931 54.5344 14.6615 54.8201 14.6615C55.6151 14.6615 57.1289 14.6615 57.9241 14.6615C58.2098 14.6615 58.4416 14.8931 58.4416 15.1789C58.4416 16.91 58.4416 22.3914 58.4416 22.3914V22.4005C58.4416 23.7755 58.6208 25.1091 58.9569 26.3791C58.9995 26.5343 58.967 26.7005 58.8693 26.8285C58.7717 26.9564 58.6198 27.0315 58.4589 27.0315C57.5817 27.0324 56.094 27.0324 55.3945 27.0324C55.1637 27.0325 54.9609 26.8799 54.8972 26.6581C54.8163 26.3738 54.743 26.0862 54.6778 25.7956ZM54.3026 20.8483C54.3026 19.2054 52.9666 17.8717 51.3208 17.8717C49.6749 17.8717 48.3389 19.2054 48.3389 20.8483C48.3389 22.4912 49.6749 23.825 51.3208 23.825C52.9666 23.825 54.3026 22.4912 54.3026 20.8483Z" fill="#1F2937"/>
<path d="M63.9261 23.1085C63.8532 22.9141 63.6657 22.785 63.4561 22.7835C62.8084 22.7708 61.4914 22.7617 60.7261 22.7562C60.5725 22.7552 60.4266 22.8215 60.3285 22.9374C60.2299 23.0538 60.1888 23.2067 60.217 23.3555C60.7625 26.1772 63.2727 27.3081 66.2776 27.3081C69.5392 27.3081 72.1075 26.0425 72.1075 23.2077C72.1075 21.031 70.5408 19.9173 68.2294 19.487L65.918 19.1073C64.9164 18.9301 64.6082 18.5504 64.6082 18.1202C64.6082 17.6646 65.0962 17.2849 66.1748 17.2849C67.177 17.2849 67.986 17.5897 68.2335 18.2644C68.306 18.4593 68.494 18.5894 68.7051 18.5894C69.3595 18.6011 70.6647 18.6011 71.4146 18.6011C71.5651 18.6016 71.7084 18.5363 71.806 18.4234C71.9036 18.31 71.9457 18.1607 71.9215 18.0139C71.4613 15.2408 68.9424 14.3742 66.1748 14.3742C62.8618 14.3742 60.6275 15.8928 60.6275 18.4745C60.6275 20.626 62.1427 21.8156 64.2744 22.1699L66.7912 22.6003C67.6131 22.7268 68.101 23.0305 68.101 23.4608C68.101 23.9923 67.4076 24.2961 66.3032 24.2961C65.1383 24.2961 64.2374 23.9361 63.9261 23.1085Z" fill="#1F2937"/>
<path fill-rule="evenodd" clip-rule="evenodd" d="M77.1659 27.2169C77.1783 27.1894 77.1916 27.1613 77.206 27.1328L77.2987 26.9442L77.2935 26.9416L77.4118 26.7048C77.4757 26.5666 77.5371 26.4279 77.5965 26.2887L72.1606 15.4208C72.0832 15.2663 72.0915 15.083 72.1824 14.936C72.273 14.7892 72.4334 14.6998 72.6059 14.6998H75.9574C76.1461 14.6998 76.3184 14.8064 76.4028 14.9751L79.8408 21.8484L83.2787 14.9751C83.363 14.8064 83.5355 14.6998 83.7242 14.6998H87.0755C87.2482 14.6998 87.4086 14.7892 87.4993 14.936C87.5901 15.083 87.5982 15.2663 87.5211 15.4208L82.0735 26.3121L82.0768 26.319L82.0679 26.3234L80.8652 28.728L80.8629 28.7269C80.8629 28.7269 80.862 28.727 80.8606 28.7272C79.1703 31.9659 77.0155 33.4297 72.6525 31.9616C72.4228 31.8845 72.2823 31.6534 72.3191 31.414C72.4028 30.8682 72.5533 29.896 72.6514 29.2619C72.6739 29.1167 72.7593 28.9888 72.8851 28.9126C73.0106 28.8364 73.1633 28.8194 73.3026 28.8663C75.1834 29.5198 76.3407 28.8908 77.1659 27.2169Z" fill="#1F2937"/>
<path fill-rule="evenodd" clip-rule="evenodd" d="M33.423 21.85C33.8131 23.1345 34.9331 24.0634 36.2521 24.0634C36.8429 24.0634 37.3935 23.8772 37.8565 23.5562C37.9437 23.4945 38.0476 23.4614 38.1544 23.4614C38.7237 23.4593 40.627 23.4593 41.7642 23.4593C41.9518 23.4591 42.1249 23.5607 42.2163 23.7244C42.3078 23.8883 42.3034 24.0888 42.2048 24.2485C40.9652 26.0863 38.7625 27.3155 36.2521 27.3155C32.3974 27.3155 29.2679 24.4176 29.2679 20.8484C29.2679 17.2793 32.3974 14.3815 36.2521 14.3815C40.1069 14.3815 43.2364 17.2793 43.2364 20.8484C43.2364 20.8489 43.2364 20.8492 43.2364 20.8496C43.2364 21.4021 42.7884 21.85 42.2359 21.85C39.8124 21.85 33.423 21.85 33.423 21.85ZM38.9379 19.4612C38.4578 18.3806 37.4351 17.6336 36.2521 17.6336C35.069 17.6336 34.0463 18.3806 33.5664 19.4612H38.9379Z" fill="#1F2937"/>
<path d="M63.9261 23.1085C63.8532 22.9141 63.6657 22.785 63.4561 22.7835C62.8084 22.7708 61.4914 22.7617 60.7261 22.7562C60.5725 22.7552 60.4266 22.8215 60.3285 22.9374C60.2299 23.0538 60.1888 23.2067 60.217 23.3555C60.7625 26.1772 63.2727 27.3081 66.2776 27.3081C69.5392 27.3081 72.1075 26.0425 72.1075 23.2077C72.1075 21.031 70.5408 19.9173 68.2294 19.487L65.918 19.1073C64.9164 18.9301 64.6082 18.5504 64.6082 18.1202C64.6082 17.6646 65.0962 17.2849 66.1748 17.2849C67.177 17.2849 67.986 17.5897 68.2335 18.2644C68.306 18.4593 68.494 18.5894 68.7051 18.5894C69.3595 18.6011 70.6647 18.6011 71.4146 18.6011C71.5651 18.6016 71.7084 18.5363 71.806 18.4234C71.9036 18.31 71.9457 18.1607 71.9215 18.0139C71.4613 15.2408 68.9424 14.3742 66.1748 14.3742C62.8618 14.3742 60.6275 15.8928 60.6275 18.4745C60.6275 20.626 62.1427 21.8156 64.2744 22.1699L66.7912 22.6003C67.6131 22.7268 68.101 23.0305 68.101 23.4608C68.101 23.9923 67.4076 24.2961 66.3032 24.2961C65.1383 24.2961 64.2374 23.9361 63.9261 23.1085Z" fill="#1F2937"/>
<path fill-rule="evenodd" clip-rule="evenodd" d="M155.894 18.3512V21.8278H153.074V9.51305H158.903C161.342 9.51305 163.322 11.4933 163.322 13.9323C163.322 16.3713 161.342 18.3512 158.903 18.3512H155.894ZM158.903 15.5305C159.785 15.5305 160.501 14.8143 160.501 13.9323C160.501 13.05 159.785 12.3341 158.903 12.3341H155.894V15.5305H158.903Z" fill="#6366F1"/>
<path d="M170.204 9.17611C166.493 9.17611 163.686 11.9961 163.686 15.5985C163.686 19.2006 166.493 22.0205 170.204 22.0205C173.916 22.0205 176.722 19.2006 176.722 15.5985C176.722 11.9961 173.916 9.17611 170.204 9.17611ZM170.204 19.1459C168.213 19.1459 166.782 17.5452 166.782 15.5985C166.782 13.6519 168.213 12.0507 170.204 12.0507C172.196 12.0507 173.626 13.6519 173.626 15.5985C173.626 17.5452 172.196 19.1459 170.204 19.1459Z" fill="#6366F1"/>
<path d="M182.356 9.17611C179.321 9.17611 177.235 10.7057 177.235 13.1822C177.235 15.1488 178.43 16.2596 180.971 16.7878L183.095 17.2248C184.215 17.4251 184.461 17.8804 184.461 18.3174C184.461 19.009 183.778 19.4282 182.64 19.4282C181.123 19.4282 180.155 18.7362 179.947 17.6436H176.723C177.026 20.7027 179.644 22.032 182.545 22.032C185.77 22.032 187.894 20.5025 187.894 18.0259C187.894 15.8956 186.377 14.9668 184.006 14.4933L182.204 14.1292C181.18 13.929 180.649 13.6193 180.649 12.909C180.649 12.1079 181.388 11.6891 182.526 11.6891C183.892 11.6891 184.48 12.3264 184.651 13.2552H187.875C187.553 9.92285 184.442 9.17611 182.356 9.17611Z" fill="#6366F1"/>
<path fill-rule="evenodd" clip-rule="evenodd" d="M0 17.5931C0.000599987 14.0943 0.451402 10.6998 1.29738 7.46466L1.30295 7.46606C2.42593 3.17214 6.33468 2.86102e-06 10.9784 2.86102e-06C15.6221 2.86102e-06 19.5308 3.17214 20.6538 7.46606L20.6594 7.46466C21.5056 10.6998 21.9561 14.0943 21.9567 17.5931H15.2191C15.2187 15.0419 14.9789 12.5464 14.5211 10.1274L14.5157 10.1284C14.2009 8.46204 12.7359 7.19987 10.9784 7.19987C9.22102 7.19987 7.75585 8.46204 7.44105 10.1284L7.43563 10.1274C6.97904 12.5444 6.74024 15.0377 6.74024 17.5867C6.74024 17.5889 6.74024 17.5911 6.74024 17.5931H0ZM21.4475 23.9929C21.2435 25.2611 20.9798 26.5093 20.6594 27.7347L20.6538 27.7333C19.5308 32.0272 15.6221 35.1993 10.9784 35.1993C6.33468 35.1993 2.42593 32.0272 1.30295 27.7333L1.29738 27.7347C0.976991 26.5093 0.713164 25.2611 0.509169 23.9929H7.25146C7.30985 24.3547 7.37305 24.7149 7.44105 25.0735L7.44164 25.0733C7.75743 26.7387 9.22182 27.9995 10.9784 27.9995C12.7349 27.9995 14.1993 26.7387 14.5153 25.0733L14.5207 25.0743C14.5885 24.7155 14.6517 24.3551 14.7099 23.9929H21.4475Z" fill="#6366F1"/>
<path d="M3.20071 40C4.9682 40 6.40104 38.5671 6.40104 36.7997C6.40104 35.0322 4.9682 33.5993 3.20071 33.5993C1.43322 33.5993 0.00038147 35.0322 0.00038147 36.7997C0.00038147 38.5671 1.43322 40 3.20071 40Z" fill="#FA6985"/>
<path fill-rule="evenodd" clip-rule="evenodd" d="M7.25123 23.9929C6.91503 21.909 6.74021 19.7712 6.74001 17.5931H15.2188C15.2188 17.5953 15.2188 17.5974 15.2188 17.5996C15.2188 19.7756 15.0449 21.911 14.7097 23.9929H7.25123Z" fill="#FA6985"/>
</svg>
